<svg width="300" height="221" viewBox="0 0 300 221" fill="none" xmlns="http://www.w3.org/2000/svg">
<path d="M149.128 119.266L149.128 144.578C128.171 136.671 106.813 129.87 85.3711 123.404L59.825 88.8789C64.3646 88.7784 94.8525 99.5329 101.486 101.761C117.501 107.172 133.214 113.587 149.128 119.249L149.128 119.266Z" fill="#88D9F2"/>
<path d="M237.509 89.3484C238.078 91.4926 237.258 92.3972 236.135 94.1896C229.786 104.19 221.076 113.236 214.274 122.952L149.597 144.578L149.144 144.578L149.144 119.267C178.091 110.187 207.976 96.0658 237.526 89.3484L237.509 89.3484Z" fill="url(#paint0_linear_117_54)"/>
<path d="M59.8413 88.879L85.3875 123.404C106.83 129.87 128.188 136.671 149.144 144.578L149.596 144.578L149.596 150.324L153.282 150.089C152.126 151.245 149.998 151.647 148.44 151.463C144.32 150.977 131.789 144.88 126.814 143.171C117.768 140.089 92.8587 133.924 86.3088 129.82C83.9301 128.329 58.6184 92.4303 58.4677 90.0013C58.3337 87.7901 59.4058 88.8622 59.8413 88.8455L59.8413 88.879Z" fill="#227EB8"/>
<path d="M153.282 150.107L149.596 150.341L149.596 144.595L214.274 122.969C221.075 113.236 229.786 104.191 236.135 94.2066C237.257 92.4309 238.078 91.5263 237.509 89.3654C238.061 89.2313 239.418 87.8912 240.273 88.6785C240.825 89.5831 238.531 94.0893 237.978 95.1279C236.219 98.4112 215.095 128.229 213.353 129.418L153.282 150.123L153.282 150.107Z" fill="#1F67AE"/>
<path d="M149.127 220.06L141.756 207.865C141.756 206.508 142.979 208.133 143.13 208.317C145.308 210.864 146.732 215.035 149.579 217.062L149.127 188.752L177.672 178.851L149.127 220.043L149.127 220.06Z" fill="#134D9B"/>
<path d="M149.128 188.769L149.58 217.079C146.733 215.035 145.309 210.881 143.131 208.334C142.964 208.15 141.741 206.509 141.757 207.882L149.128 220.077L121.052 178.885L149.128 188.785L149.128 188.769Z" fill="#4B84BF"/>
<path d="M117.836 174.496C117.92 173.692 117.417 173.189 116.915 172.653L114.385 165.751C115.373 167.594 116.713 168.214 118.523 168.968C128.172 172.988 139.73 174.981 149.362 179.555L149.128 154.243C168.744 146.671 188.461 139.234 208.73 133.538C208.345 134.56 208.361 136 208.043 136.989C207.289 139.267 183.016 173.189 181.123 174.496C179.565 175.568 151.054 186.523 149.362 186.456L117.836 174.496Z" fill="#1F67AE"/>
<path d="M149.128 154.244L149.363 179.556C139.73 174.982 128.172 172.989 118.523 168.969C116.714 168.215 115.357 167.578 114.385 165.752L116.915 172.654C109.393 164.613 102.776 153.088 97.1144 144.813C96.3103 143.623 88.6046 134.611 90.4473 133.539C110.264 139.637 130.031 146.186 149.128 154.244Z" fill="#5793C8"/>
<path d="M117.835 174.495L116.914 172.653C117.417 173.189 117.919 173.691 117.835 174.495Z" fill="#5793C8"/>
<path d="M271.564 41.8807L245.097 77.7793L149.127 109.54L148.205 109.088L149.579 83.7764C189.9 68.8842 230.506 54.7124 271.547 41.8974L271.564 41.8807Z" fill="url(#paint1_linear_117_54)"/>
<path d="M149.596 83.7584L148.222 109.07L53.6257 77.7781C44.4793 68.2632 37.6112 53.639 29.0009 44.1744C30.274 40.5728 37.0919 45.4307 38.901 46.0171C75.4195 57.8772 113.245 69.821 149.596 83.7584Z" fill="#B2E6F8"/>
<path d="M29.0006 44.1743C37.611 53.6389 44.4791 68.263 53.6255 77.7779L148.222 109.07L149.143 109.522C149.679 111.8 150.282 114.966 148.691 116.893C135.826 112.37 123.161 106.993 110.263 102.621C98.3522 98.5834 61.9343 89.3365 54.5636 84.6628C52.6539 83.4567 29.922 51.545 28.0961 48.0774C26.4209 44.8946 24.2264 38.8975 29.0174 44.1575L29.0006 44.1743Z" fill="#3B99C8"/>
<path d="M148.674 116.91C150.266 114.984 149.663 111.818 149.127 109.54L245.096 77.7787L271.564 41.88L272.485 41.6455C272.234 42.4161 272.217 43.7729 272.033 44.4095C271.212 47.1568 246.638 82.8544 244.644 84.228L148.674 116.91Z" fill="#227EB8"/>
<path d="M299.64 1.3737C299.07 0.820898 295.954 1.15593 295.954 1.60822C295.954 2.29504 298.4 0.887905 298.249 2.98185C298.132 4.72402 279.504 27.4894 276.841 30.3707C234.158 44.1573 191.826 58.9489 149.797 74.5614C106.913 59.4683 64.2296 43.8055 20.9099 29.9185L0.925294 3.21643C2.71771 0.904708 7.08988 4.23827 9.90415 5.0591C49.1196 16.6009 86.6264 32.85 125.44 45.5644C129.477 46.8878 145.81 52.4996 148.909 52.4661C158.373 52.3488 177.37 43.1354 187.572 39.5841C225.346 27.5062 262.267 12.0947 299.874 6.98004e-05C300.293 0.134082 299.522 0.720389 299.64 1.3737Z" fill="url(#paint2_linear_117_54)"/>
<path d="M299.64 1.37392C300.661 6.83493 278.466 29.8516 276.857 36.3512C234.56 51.0926 192.128 65.4655 150.282 81.4633L23.2383 37.2726C22.8698 36.4853 21.9987 35.5472 21.6302 34.9777C22.1997 32.6827 21.2617 33.8553 21.1779 33.604C20.9936 33.068 21.4627 32.2806 20.4911 31.7613C19.7373 32.3477 21.1276 33.4365 21.1779 33.604C21.5799 34.7766 20.8261 33.7213 21.6302 34.9777C21.1611 36.8706 20.8764 36.234 19.3352 34.2908C15.3818 29.3324 12.0483 22.6317 9.21726 18.1758C7.94414 16.1824 0.0876387 5.46136 0.00388056 4.3725C-0.063126 3.46792 0.757702 3.43441 0.925218 3.21664L20.9434 29.9187C64.263 43.8057 106.929 59.4685 149.83 74.5616C191.86 58.9492 234.191 44.1575 276.874 30.3709C279.538 27.4896 298.149 4.72423 298.283 2.98207C298.433 0.88812 295.988 2.29525 295.988 1.60844C295.988 1.1729 299.104 0.821113 299.673 1.37392L299.64 1.37392Z" fill="#52ABD4"/>
<path d="M21.1778 33.5867C21.1276 33.4193 19.7377 32.3308 20.4913 31.7447C21.4625 32.2638 20.9936 33.0509 21.1778 33.5867Z" fill="white"/>
<path d="M21.6295 34.9766C20.8257 33.7039 21.5625 34.7756 21.1774 33.6034C21.2611 33.8546 22.1989 32.6824 21.6295 34.9766Z" fill="white"/>
<defs>
<linearGradient id="paint0_linear_117_54" x1="231.732" y1="107.805" x2="157.027" y2="121.708" gradientUnits="userSpaceOnUse">
<stop stop-color="#2F84BF"/>
<stop offset="1" stop-color="#32A5D5"/>
</linearGradient>
<linearGradient id="paint1_linear_117_54" x1="263.582" y1="66.2279" x2="156.651" y2="82.0808" gradientUnits="userSpaceOnUse">
<stop stop-color="#2AA4D4"/>
<stop offset="1" stop-color="#59BEE2"/>
</linearGradient>
<linearGradient id="paint2_linear_117_54" x1="46.599" y1="-43.7351" x2="263.627" y2="60.1746" gradientUnits="userSpaceOnUse">
<stop offset="0.28" stop-color="#B9E4F4"/>
<stop offset="1" stop-color="#5FBDE1"/>
</linearGradient>
</defs>
</svg>
